<?xml version="1.0" encoding="UTF-8" standalone="no"?>
<!DOCTYPE svg PUBLIC "-//W3C//DTD SVG 1.1//EN"
 "http://www.w3.org/Graphics/SVG/1.1/DTD/svg11.dtd">
<!-- Generated by graphviz version 12.2.1 (20241206.2353)
 -->
<!-- Title: wbwlib::ds::DSUWave Pages: 1 -->
<svg width="123pt" height="274pt"
 viewBox="0.00 0.00 123.00 274.00" xmlns="http://www.w3.org/2000/svg" xmlns:xlink="http://www.w3.org/1999/xlink">
<g id="graph0" class="graph" transform="scale(1 1) rotate(0) translate(4 270)">
<title>wbwlib::ds::DSUWave</title>
<polygon fill="white" stroke="none" points="-4,4 -4,-270 119,-270 119,4 -4,4"/>
<!-- Node1 -->
<g id="node1" class="node">
<title>Node1</title>
<g id="a_node1"><a xlink:title="维护连通块大小的并查集（路径压缩 + 按秩合并）。">
<polygon fill="#bfbfbf" stroke="black" points="0,-0.5 0,-96.5 115,-96.5 115,-0.5 0,-0.5"/>
<text text-anchor="middle" x="57.5" y="-83" font-family="Helvetica,sans-Serif" font-size="10.00">wbwlib::ds::DSUWave</text>
<polyline fill="none" stroke="black" points="0,-76.5 115,-76.5"/>
<text text-anchor="start" x="8" y="-63" font-family="Helvetica,sans-Serif" font-size="10.00">&#45; sz_</text>
<polyline fill="none" stroke="black" points="0,-56.5 115,-56.5"/>
<text text-anchor="start" x="8" y="-43" font-family="Helvetica,sans-Serif" font-size="10.00">+ DSUWave()</text>
<text text-anchor="start" x="8" y="-31" font-family="Helvetica,sans-Serif" font-size="10.00">+ find()</text>
<text text-anchor="start" x="8" y="-19" font-family="Helvetica,sans-Serif" font-size="10.00">+ unite()</text>
<text text-anchor="start" x="8" y="-7" font-family="Helvetica,sans-Serif" font-size="10.00">+ size_of()</text>
</a>
</g>
</g>
<!-- Node2 -->
<g id="node2" class="node">
<title>Node2</title>
<g id="a_node2"><a xlink:href="classwbwlib_1_1ds_1_1_d_s_u.html" target="_top" xlink:title="标准并查集：路径压缩 + 按秩合并。">
<polygon fill="white" stroke="black" points="12.38,-133.5 12.38,-265.5 102.63,-265.5 102.63,-133.5 12.38,-133.5"/>
<text text-anchor="middle" x="57.5" y="-252" font-family="Helvetica,sans-Serif" font-size="10.00">wbwlib::ds::DSU</text>
<polyline fill="none" stroke="black" points="12.38,-245.5 102.63,-245.5"/>
<text text-anchor="start" x="20.38" y="-232" font-family="Helvetica,sans-Serif" font-size="10.00">+ fa_</text>
<text text-anchor="start" x="20.38" y="-220" font-family="Helvetica,sans-Serif" font-size="10.00">+ rk_</text>
<polyline fill="none" stroke="black" points="12.38,-213.5 102.63,-213.5"/>
<text text-anchor="start" x="20.38" y="-200" font-family="Helvetica,sans-Serif" font-size="10.00">+ DSU()</text>
<text text-anchor="start" x="20.38" y="-188" font-family="Helvetica,sans-Serif" font-size="10.00">+ init()</text>
<text text-anchor="start" x="20.38" y="-176" font-family="Helvetica,sans-Serif" font-size="10.00">+ find()</text>
<text text-anchor="start" x="20.38" y="-164" font-family="Helvetica,sans-Serif" font-size="10.00">+ unite()</text>
<text text-anchor="start" x="20.38" y="-152" font-family="Helvetica,sans-Serif" font-size="10.00">+ same()</text>
<text text-anchor="start" x="20.38" y="-140" font-family="Helvetica,sans-Serif" font-size="10.00">+ rank_of()</text>
</a>
</g>
</g>
<!-- Node2&#45;&gt;Node1 -->
<g id="edge1" class="edge">
<title>Node2&#45;&gt;Node1</title>
<path fill="none" stroke="midnightblue" d="M57.5,-121.65C57.5,-113.22 57.5,-104.82 57.5,-96.89"/>
<polygon fill="none" stroke="midnightblue" points="54,-121.63 57.5,-131.63 61,-121.63 54,-121.63"/>
</g>
</g>
</svg>
