<?xml version="1.0" encoding="UTF-8" standalone="no"?>
<!DOCTYPE svg PUBLIC "-//W3C//DTD SVG 1.1//EN"
 "http://www.w3.org/Graphics/SVG/1.1/DTD/svg11.dtd">
<!-- Generated by graphviz version 12.2.1 (20241206.2353)
 -->
<!-- Title: wbwlib/math Pages: 1 -->
<svg width="94pt" height="168pt"
 viewBox="0.00 0.00 94.00 168.00" xmlns="http://www.w3.org/2000/svg" xmlns:xlink="http://www.w3.org/1999/xlink">
<g id="graph0" class="graph" transform="scale(1 1) rotate(0) translate(4 164)">
<title>wbwlib/math</title>
<polygon fill="white" stroke="none" points="-4,4 -4,-164 90,-164 90,4 -4,4"/>
<g id="clust1" class="cluster">
<title>clusterdir_96c9ea494fd3b8ca8cb2b467f31d2656</title>
<g id="a_clust1"><a xlink:href="dir_96c9ea494fd3b8ca8cb2b467f31d2656.html" target="_top" xlink:title="wbwlib">
<polygon fill="#ddddee" stroke="black" points="8,-8 8,-152 78,-152 78,-8 8,-8"/>
<text text-anchor="middle" x="43" y="-138.5" font-family="Helvetica,sans-Serif" font-size="10.00">wbwlib</text>
</a>
</g>
</g>
<!-- dir_db6fe23e93d02a8b09d5cb2d28a46a7e -->
<g id="node1" class="node">
<title>dir_db6fe23e93d02a8b09d5cb2d28a46a7e</title>
<g id="a_node1"><a xlink:href="dir_db6fe23e93d02a8b09d5cb2d28a46a7e.html" target="_top" xlink:title="core">
<polygon fill="none" stroke="black" points="70,-52 16,-52 16,-16 70,-16 70,-52"/>
<text text-anchor="middle" x="43" y="-30.5" font-family="Helvetica,sans-Serif" font-size="10.00">core</text>
</a>
</g>
</g>
<!-- dir_3daf11f4f079b8f8f9a94cd388c9bdee -->
<g id="node2" class="node">
<title>dir_3daf11f4f079b8f8f9a94cd388c9bdee</title>
<g id="a_node2"><a xlink:href="dir_3daf11f4f079b8f8f9a94cd388c9bdee.html" target="_top" xlink:title="math">
<polygon fill="#eeeeff" stroke="black" points="70,-124 16,-124 16,-88 70,-88 70,-124"/>
<text text-anchor="middle" x="43" y="-102.5" font-family="Helvetica,sans-Serif" font-size="10.00">math</text>
</a>
</g>
</g>
<!-- dir_3daf11f4f079b8f8f9a94cd388c9bdee&#45;&gt;dir_db6fe23e93d02a8b09d5cb2d28a46a7e -->
<g id="edge1" class="edge">
<title>dir_3daf11f4f079b8f8f9a94cd388c9bdee&#45;&gt;dir_db6fe23e93d02a8b09d5cb2d28a46a7e</title>
<path fill="none" stroke="black" d="M43,-87.7C43,-80.41 43,-71.73 43,-63.54"/>
<polygon fill="black" stroke="black" points="46.5,-63.62 43,-53.62 39.5,-63.62 46.5,-63.62"/>
<g id="a_edge1&#45;headlabel"><a xlink:href="dir_000006_000001.html" target="_top" xlink:title="13">
<text text-anchor="middle" x="49.34" y="-62.2" font-family="Helvetica,sans-Serif" font-size="10.00">13</text>
</a>
</g>
</g>
</g>
</svg>
