<?xml version="1.0" encoding="UTF-8" standalone="no"?>
<!DOCTYPE svg PUBLIC "-//W3C//DTD SVG 1.1//EN"
 "http://www.w3.org/Graphics/SVG/1.1/DTD/svg11.dtd">
<!-- Generated by graphviz version 12.2.1 (20241206.2353)
 -->
<!-- Title: wbwlib Pages: 1 -->
<svg width="532pt" height="220pt"
 viewBox="0.00 0.00 532.00 220.00" xmlns="http://www.w3.org/2000/svg" xmlns:xlink="http://www.w3.org/1999/xlink">
<g id="graph0" class="graph" transform="scale(1 1) rotate(0) translate(4 216)">
<title>wbwlib</title>
<polygon fill="white" stroke="none" points="-4,4 -4,-216 528,-216 528,4 -4,4"/>
<g id="clust1" class="cluster">
<title>clusterdir_96c9ea494fd3b8ca8cb2b467f31d2656</title>
<g id="a_clust1"><a xlink:href="dir_96c9ea494fd3b8ca8cb2b467f31d2656.html" target="_top">
<polygon fill="#eeeeff" stroke="black" points="8,-8 8,-204 516,-204 516,-8 8,-8"/>
</a>
</g>
</g>
<!-- dir_96c9ea494fd3b8ca8cb2b467f31d2656 -->
<g id="node1" class="node">
<title>dir_96c9ea494fd3b8ca8cb2b467f31d2656</title>
<text text-anchor="middle" x="265" y="-174.5" font-family="Helvetica,sans-Serif" font-size="10.00">wbwlib</text>
</g>
<!-- dir_8d69220e0774a19b26f749e5403d9fea -->
<g id="node3" class="node">
<title>dir_8d69220e0774a19b26f749e5403d9fea</title>
<g id="a_node3"><a xlink:href="dir_8d69220e0774a19b26f749e5403d9fea.html" target="_top" xlink:title="datastruct">
<polygon fill="white" stroke="black" points="75.75,-124 16.25,-124 16.25,-88 75.75,-88 75.75,-124"/>
<text text-anchor="middle" x="46" y="-102.5" font-family="Helvetica,sans-Serif" font-size="10.00">datastruct</text>
</a>
</g>
</g>
<!-- dir_96c9ea494fd3b8ca8cb2b467f31d2656&#45;&gt;dir_8d69220e0774a19b26f749e5403d9fea -->
<g id="edge5" class="edge">
<title>dir_96c9ea494fd3b8ca8cb2b467f31d2656&#45;&gt;dir_8d69220e0774a19b26f749e5403d9fea</title>
<path fill="none" stroke="black" d="M238.13,-170.21C204.66,-161.51 145.61,-145.39 86.69,-124.39"/>
<polygon fill="black" stroke="black" points="88.1,-121.18 77.51,-121.07 85.72,-127.76 88.1,-121.18"/>
<g id="a_edge5&#45;headlabel"><a xlink:href="dir_000000_000002.html" target="_top" xlink:title="15">
<text text-anchor="middle" x="91.02" y="-115.72" font-family="Helvetica,sans-Serif" font-size="10.00">15</text>
</a>
</g>
</g>
<!-- dir_1d28127a4ea1892663a1bc4cd708e7e0 -->
<g id="node4" class="node">
<title>dir_1d28127a4ea1892663a1bc4cd708e7e0</title>
<g id="a_node4"><a xlink:href="dir_1d28127a4ea1892663a1bc4cd708e7e0.html" target="_top" xlink:title="dp">
<polygon fill="white" stroke="black" points="148,-124 94,-124 94,-88 148,-88 148,-124"/>
<text text-anchor="middle" x="121" y="-102.5" font-family="Helvetica,sans-Serif" font-size="10.00">dp</text>
</a>
</g>
</g>
<!-- dir_96c9ea494fd3b8ca8cb2b467f31d2656&#45;&gt;dir_1d28127a4ea1892663a1bc4cd708e7e0 -->
<g id="edge2" class="edge">
<title>dir_96c9ea494fd3b8ca8cb2b467f31d2656&#45;&gt;dir_1d28127a4ea1892663a1bc4cd708e7e0</title>
<path fill="none" stroke="black" d="M238.25,-164C215.76,-153.07 183.37,-137.32 158.33,-125.14"/>
<polygon fill="black" stroke="black" points="159.98,-122.06 149.45,-120.83 156.92,-128.35 159.98,-122.06"/>
<g id="a_edge2&#45;headlabel"><a xlink:href="dir_000000_000003.html" target="_top" xlink:title="4">
<text text-anchor="middle" x="163.09" y="-116.91" font-family="Helvetica,sans-Serif" font-size="10.00">4</text>
</a>
</g>
</g>
<!-- dir_2ecdf383c720a2d71ee413e323799741 -->
<g id="node5" class="node">
<title>dir_2ecdf383c720a2d71ee413e323799741</title>
<g id="a_node5"><a xlink:href="dir_2ecdf383c720a2d71ee413e323799741.html" target="_top" xlink:title="geo">
<polygon fill="white" stroke="black" points="220,-124 166,-124 166,-88 220,-88 220,-124"/>
<text text-anchor="middle" x="193" y="-102.5" font-family="Helvetica,sans-Serif" font-size="10.00">geo</text>
</a>
</g>
</g>
<!-- dir_96c9ea494fd3b8ca8cb2b467f31d2656&#45;&gt;dir_2ecdf383c720a2d71ee413e323799741 -->
<g id="edge3" class="edge">
<title>dir_96c9ea494fd3b8ca8cb2b467f31d2656&#45;&gt;dir_2ecdf383c720a2d71ee413e323799741</title>
<path fill="none" stroke="black" d="M247.57,-160.05C238.94,-151.67 228.36,-141.38 218.81,-132.1"/>
<polygon fill="black" stroke="black" points="221.46,-129.79 211.85,-125.33 216.58,-134.81 221.46,-129.79"/>
<g id="a_edge3&#45;headlabel"><a xlink:href="dir_000000_000004.html" target="_top" xlink:title="6">
<text text-anchor="middle" x="224.94" y="-125.71" font-family="Helvetica,sans-Serif" font-size="10.00">6</text>
</a>
</g>
</g>
<!-- dir_eb5e8cb22b4df04bf6d97bd1e7f427e8 -->
<g id="node6" class="node">
<title>dir_eb5e8cb22b4df04bf6d97bd1e7f427e8</title>
<g id="a_node6"><a xlink:href="dir_eb5e8cb22b4df04bf6d97bd1e7f427e8.html" target="_top" xlink:title="graph">
<polygon fill="white" stroke="black" points="292,-124 238,-124 238,-88 292,-88 292,-124"/>
<text text-anchor="middle" x="265" y="-102.5" font-family="Helvetica,sans-Serif" font-size="10.00">graph</text>
</a>
</g>
</g>
<!-- dir_96c9ea494fd3b8ca8cb2b467f31d2656&#45;&gt;dir_eb5e8cb22b4df04bf6d97bd1e7f427e8 -->
<g id="edge7" class="edge">
<title>dir_96c9ea494fd3b8ca8cb2b467f31d2656&#45;&gt;dir_eb5e8cb22b4df04bf6d97bd1e7f427e8</title>
<path fill="none" stroke="black" d="M265,-160.05C265,-152.68 265,-143.84 265,-135.51"/>
<polygon fill="black" stroke="black" points="268.5,-135.79 265,-125.79 261.5,-135.79 268.5,-135.79"/>
<g id="a_edge7&#45;headlabel"><a xlink:href="dir_000000_000005.html" target="_top" xlink:title="14">
<text text-anchor="middle" x="271.34" y="-134.37" font-family="Helvetica,sans-Serif" font-size="10.00">14</text>
</a>
</g>
</g>
<!-- dir_3daf11f4f079b8f8f9a94cd388c9bdee -->
<g id="node7" class="node">
<title>dir_3daf11f4f079b8f8f9a94cd388c9bdee</title>
<g id="a_node7"><a xlink:href="dir_3daf11f4f079b8f8f9a94cd388c9bdee.html" target="_top" xlink:title="math">
<polygon fill="white" stroke="black" points="364,-124 310,-124 310,-88 364,-88 364,-124"/>
<text text-anchor="middle" x="337" y="-102.5" font-family="Helvetica,sans-Serif" font-size="10.00">math</text>
</a>
</g>
</g>
<!-- dir_96c9ea494fd3b8ca8cb2b467f31d2656&#45;&gt;dir_3daf11f4f079b8f8f9a94cd388c9bdee -->
<g id="edge4" class="edge">
<title>dir_96c9ea494fd3b8ca8cb2b467f31d2656&#45;&gt;dir_3daf11f4f079b8f8f9a94cd388c9bdee</title>
<path fill="none" stroke="black" d="M282.43,-160.05C291.06,-151.67 301.64,-141.38 311.19,-132.1"/>
<polygon fill="black" stroke="black" points="313.42,-134.81 318.15,-125.33 308.54,-129.79 313.42,-134.81"/>
<g id="a_edge4&#45;headlabel"><a xlink:href="dir_000000_000006.html" target="_top" xlink:title="13">
<text text-anchor="middle" x="313.9" y="-134.8" font-family="Helvetica,sans-Serif" font-size="10.00">13</text>
</a>
</g>
</g>
<!-- dir_f7262b3bb3e23373aa16a9ae1edf8653 -->
<g id="node8" class="node">
<title>dir_f7262b3bb3e23373aa16a9ae1edf8653</title>
<g id="a_node8"><a xlink:href="dir_f7262b3bb3e23373aa16a9ae1edf8653.html" target="_top" xlink:title="misc">
<polygon fill="white" stroke="black" points="436,-124 382,-124 382,-88 436,-88 436,-124"/>
<text text-anchor="middle" x="409" y="-102.5" font-family="Helvetica,sans-Serif" font-size="10.00">misc</text>
</a>
</g>
</g>
<!-- dir_96c9ea494fd3b8ca8cb2b467f31d2656&#45;&gt;dir_f7262b3bb3e23373aa16a9ae1edf8653 -->
<g id="edge8" class="edge">
<title>dir_96c9ea494fd3b8ca8cb2b467f31d2656&#45;&gt;dir_f7262b3bb3e23373aa16a9ae1edf8653</title>
<path fill="none" stroke="black" d="M291.75,-164C314.24,-153.07 346.63,-137.32 371.67,-125.14"/>
<polygon fill="black" stroke="black" points="373.08,-128.35 380.55,-120.83 370.02,-122.06 373.08,-128.35"/>
<g id="a_edge8&#45;headlabel"><a xlink:href="dir_000000_000007.html" target="_top" xlink:title="1">
<text text-anchor="middle" x="372.45" y="-128.32" font-family="Helvetica,sans-Serif" font-size="10.00">1</text>
</a>
</g>
</g>
<!-- dir_afebc595d8b67017c6a69c4771c58b6b -->
<g id="node9" class="node">
<title>dir_afebc595d8b67017c6a69c4771c58b6b</title>
<g id="a_node9"><a xlink:href="dir_afebc595d8b67017c6a69c4771c58b6b.html" target="_top" xlink:title="string">
<polygon fill="white" stroke="black" points="508,-124 454,-124 454,-88 508,-88 508,-124"/>
<text text-anchor="middle" x="481" y="-102.5" font-family="Helvetica,sans-Serif" font-size="10.00">string</text>
</a>
</g>
</g>
<!-- dir_96c9ea494fd3b8ca8cb2b467f31d2656&#45;&gt;dir_afebc595d8b67017c6a69c4771c58b6b -->
<g id="edge6" class="edge">
<title>dir_96c9ea494fd3b8ca8cb2b467f31d2656&#45;&gt;dir_afebc595d8b67017c6a69c4771c58b6b</title>
<path fill="none" stroke="black" d="M291.96,-170.45C325.52,-162.01 384.68,-146.16 443.15,-124.42"/>
<polygon fill="black" stroke="black" points="444.14,-127.79 452.26,-120.98 441.67,-121.24 444.14,-127.79"/>
<g id="a_edge6&#45;headlabel"><a xlink:href="dir_000000_000008.html" target="_top" xlink:title="10">
<text text-anchor="middle" x="443.2" y="-127.68" font-family="Helvetica,sans-Serif" font-size="10.00">10</text>
</a>
</g>
</g>
<!-- dir_db6fe23e93d02a8b09d5cb2d28a46a7e -->
<g id="node2" class="node">
<title>dir_db6fe23e93d02a8b09d5cb2d28a46a7e</title>
<g id="a_node2"><a xlink:href="dir_db6fe23e93d02a8b09d5cb2d28a46a7e.html" target="_top" xlink:title="core">
<polygon fill="white" stroke="black" points="292,-52 238,-52 238,-16 292,-16 292,-52"/>
<text text-anchor="middle" x="265" y="-30.5" font-family="Helvetica,sans-Serif" font-size="10.00">core</text>
</a>
</g>
</g>
<!-- dir_8d69220e0774a19b26f749e5403d9fea&#45;&gt;dir_db6fe23e93d02a8b09d5cb2d28a46a7e -->
<g id="edge10" class="edge">
<title>dir_8d69220e0774a19b26f749e5403d9fea&#45;&gt;dir_db6fe23e93d02a8b09d5cb2d28a46a7e</title>
<path fill="none" stroke="black" d="M76.08,-91.44C79.08,-90.23 82.08,-89.06 85,-88 133.14,-70.5 190.05,-54.5 226.79,-44.76"/>
<polygon fill="black" stroke="black" points="227.27,-48.26 236.05,-42.33 225.49,-41.49 227.27,-48.26"/>
<g id="a_edge10&#45;headlabel"><a xlink:href="dir_000002_000001.html" target="_top" xlink:title="15">
<text text-anchor="middle" x="225.98" y="-48.03" font-family="Helvetica,sans-Serif" font-size="10.00">15</text>
</a>
</g>
</g>
<!-- dir_1d28127a4ea1892663a1bc4cd708e7e0&#45;&gt;dir_db6fe23e93d02a8b09d5cb2d28a46a7e -->
<g id="edge14" class="edge">
<title>dir_1d28127a4ea1892663a1bc4cd708e7e0&#45;&gt;dir_db6fe23e93d02a8b09d5cb2d28a46a7e</title>
<path fill="none" stroke="black" d="M148.42,-91.67C170.84,-80.77 202.77,-65.25 227.55,-53.21"/>
<polygon fill="black" stroke="black" points="228.85,-56.46 236.32,-48.94 225.79,-50.17 228.85,-56.46"/>
<g id="a_edge14&#45;headlabel"><a xlink:href="dir_000003_000001.html" target="_top" xlink:title="4">
<text text-anchor="middle" x="228.22" y="-56.43" font-family="Helvetica,sans-Serif" font-size="10.00">4</text>
</a>
</g>
</g>
<!-- dir_2ecdf383c720a2d71ee413e323799741&#45;&gt;dir_db6fe23e93d02a8b09d5cb2d28a46a7e -->
<g id="edge9" class="edge">
<title>dir_2ecdf383c720a2d71ee413e323799741&#45;&gt;dir_db6fe23e93d02a8b09d5cb2d28a46a7e</title>
<path fill="none" stroke="black" d="M210.8,-87.7C219.28,-79.45 229.59,-69.43 238.93,-60.35"/>
<polygon fill="black" stroke="black" points="241.34,-62.88 246.07,-53.4 236.46,-57.86 241.34,-62.88"/>
<g id="a_edge9&#45;headlabel"><a xlink:href="dir_000004_000001.html" target="_top" xlink:title="6">
<text text-anchor="middle" x="241.83" y="-62.87" font-family="Helvetica,sans-Serif" font-size="10.00">6</text>
</a>
</g>
</g>
<!-- dir_eb5e8cb22b4df04bf6d97bd1e7f427e8&#45;&gt;dir_db6fe23e93d02a8b09d5cb2d28a46a7e -->
<g id="edge13" class="edge">
<title>dir_eb5e8cb22b4df04bf6d97bd1e7f427e8&#45;&gt;dir_db6fe23e93d02a8b09d5cb2d28a46a7e</title>
<path fill="none" stroke="black" d="M265,-87.7C265,-80.41 265,-71.73 265,-63.54"/>
<polygon fill="black" stroke="black" points="268.5,-63.62 265,-53.62 261.5,-63.62 268.5,-63.62"/>
<g id="a_edge13&#45;headlabel"><a xlink:href="dir_000005_000001.html" target="_top" xlink:title="14">
<text text-anchor="middle" x="271.34" y="-62.2" font-family="Helvetica,sans-Serif" font-size="10.00">14</text>
</a>
</g>
</g>
<!-- dir_3daf11f4f079b8f8f9a94cd388c9bdee&#45;&gt;dir_db6fe23e93d02a8b09d5cb2d28a46a7e -->
<g id="edge1" class="edge">
<title>dir_3daf11f4f079b8f8f9a94cd388c9bdee&#45;&gt;dir_db6fe23e93d02a8b09d5cb2d28a46a7e</title>
<path fill="none" stroke="black" d="M319.2,-87.7C310.72,-79.45 300.41,-69.43 291.07,-60.35"/>
<polygon fill="black" stroke="black" points="293.54,-57.86 283.93,-53.4 288.66,-62.88 293.54,-57.86"/>
<g id="a_edge1&#45;headlabel"><a xlink:href="dir_000006_000001.html" target="_top" xlink:title="13">
<text text-anchor="middle" x="297.01" y="-53.78" font-family="Helvetica,sans-Serif" font-size="10.00">13</text>
</a>
</g>
</g>
<!-- dir_f7262b3bb3e23373aa16a9ae1edf8653&#45;&gt;dir_db6fe23e93d02a8b09d5cb2d28a46a7e -->
<g id="edge12" class="edge">
<title>dir_f7262b3bb3e23373aa16a9ae1edf8653&#45;&gt;dir_db6fe23e93d02a8b09d5cb2d28a46a7e</title>
<path fill="none" stroke="black" d="M381.58,-91.67C359.16,-80.77 327.23,-65.25 302.45,-53.21"/>
<polygon fill="black" stroke="black" points="304.21,-50.17 293.68,-48.94 301.15,-56.46 304.21,-50.17"/>
<g id="a_edge12&#45;headlabel"><a xlink:href="dir_000007_000001.html" target="_top" xlink:title="1">
<text text-anchor="middle" x="307.32" y="-45.02" font-family="Helvetica,sans-Serif" font-size="10.00">1</text>
</a>
</g>
</g>
<!-- dir_afebc595d8b67017c6a69c4771c58b6b&#45;&gt;dir_db6fe23e93d02a8b09d5cb2d28a46a7e -->
<g id="edge11" class="edge">
<title>dir_afebc595d8b67017c6a69c4771c58b6b&#45;&gt;dir_db6fe23e93d02a8b09d5cb2d28a46a7e</title>
<path fill="none" stroke="black" d="M453.67,-91.56C450.77,-90.29 447.84,-89.08 445,-88 396.99,-69.72 339.83,-53.85 303.01,-44.36"/>
<polygon fill="black" stroke="black" points="304.29,-41.07 293.73,-42 302.56,-47.86 304.29,-41.07"/>
<g id="a_edge11&#45;headlabel"><a xlink:href="dir_000008_000001.html" target="_top" xlink:title="10">
<text text-anchor="middle" x="307.01" y="-35.34" font-family="Helvetica,sans-Serif" font-size="10.00">10</text>
</a>
</g>
</g>
</g>
</svg>
