<?xml version="1.0" encoding="UTF-8" standalone="no"?>
<!DOCTYPE svg PUBLIC "-//W3C//DTD SVG 1.1//EN"
 "http://www.w3.org/Graphics/SVG/1.1/DTD/svg11.dtd">
<!-- Generated by graphviz version 12.2.1 (20241206.2353)
 -->
<!-- Title: pushdown Pages: 1 -->
<svg width="220pt" height="216pt"
 viewBox="0.00 0.00 220.21 215.50" xmlns="http://www.w3.org/2000/svg" xmlns:xlink="http://www.w3.org/1999/xlink">
<g id="graph0" class="graph" transform="scale(1 1) rotate(0) translate(4 211.5)">
<title>pushdown</title>
<polygon fill="white" stroke="none" points="-4,4 -4,-211.5 216.21,-211.5 216.21,4 -4,4"/>
<!-- root -->
<g id="node1" class="node">
<title>root</title>
<path fill="#fef3c7" stroke="black" d="M141.25,-207.5C141.25,-207.5 69,-207.5 69,-207.5 63,-207.5 57,-201.5 57,-195.5 57,-195.5 57,-178.5 57,-178.5 57,-172.5 63,-166.5 69,-166.5 69,-166.5 141.25,-166.5 141.25,-166.5 147.25,-166.5 153.25,-172.5 153.25,-178.5 153.25,-178.5 153.25,-195.5 153.25,-195.5 153.25,-201.5 147.25,-207.5 141.25,-207.5"/>
<text text-anchor="middle" x="105.13" y="-190.2" font-family="Times New Roman,serif" font-size="14.00">[1,4] &#160;sum+=2</text>
<text text-anchor="middle" x="105.13" y="-173.7" font-family="Times New Roman,serif" font-size="14.00">标记 tag=2</text>
</g>
<!-- lc -->
<g id="node2" class="node">
<title>lc</title>
<path fill="#fef3c7" stroke="black" d="M84.25,-114C84.25,-114 12,-114 12,-114 6,-114 0,-108 0,-102 0,-102 0,-85 0,-85 0,-79 6,-73 12,-73 12,-73 84.25,-73 84.25,-73 90.25,-73 96.25,-79 96.25,-85 96.25,-85 96.25,-102 96.25,-102 96.25,-108 90.25,-114 84.25,-114"/>
<text text-anchor="middle" x="48.13" y="-96.7" font-family="Times New Roman,serif" font-size="14.00">[1,2] &#160;sum+=2</text>
<text text-anchor="middle" x="48.13" y="-80.2" font-family="Times New Roman,serif" font-size="14.00">标记 tag=2</text>
</g>
<!-- root&#45;&gt;lc -->
<g id="edge1" class="edge">
<title>root&#45;&gt;lc</title>
<path fill="none" stroke="black" stroke-dasharray="5,2" d="M88.95,-166.22C84.66,-160.63 80.17,-154.45 76.38,-148.5 71.55,-140.93 66.82,-132.45 62.65,-124.49"/>
<polygon fill="black" stroke="black" points="65.88,-123.12 58.22,-115.8 59.64,-126.3 65.88,-123.12"/>
<text text-anchor="middle" x="108.25" y="-135.2" font-family="Times New Roman,serif" font-size="14.00">push 下传</text>
</g>
<!-- rc -->
<g id="node3" class="node">
<title>rc</title>
<path fill="#fef3c7" stroke="black" d="M198.25,-114C198.25,-114 126,-114 126,-114 120,-114 114,-108 114,-102 114,-102 114,-85 114,-85 114,-79 120,-73 126,-73 126,-73 198.25,-73 198.25,-73 204.25,-73 210.25,-79 210.25,-85 210.25,-85 210.25,-102 210.25,-102 210.25,-108 204.25,-114 198.25,-114"/>
<text text-anchor="middle" x="162.13" y="-96.7" font-family="Times New Roman,serif" font-size="14.00">[3,4] &#160;sum+=2</text>
<text text-anchor="middle" x="162.13" y="-80.2" font-family="Times New Roman,serif" font-size="14.00">标记 tag=2</text>
</g>
<!-- root&#45;&gt;rc -->
<g id="edge2" class="edge">
<title>root&#45;&gt;rc</title>
<path fill="none" stroke="black" stroke-dasharray="5,2" d="M126.2,-166.1C131.19,-160.71 136.19,-154.65 140.13,-148.5 144.72,-141.31 148.68,-133 151.91,-125.09"/>
<polygon fill="black" stroke="black" points="155.18,-126.34 155.47,-115.74 148.64,-123.85 155.18,-126.34"/>
<text text-anchor="middle" x="180.33" y="-135.2" font-family="Times New Roman,serif" font-size="14.00">push 下传</text>
</g>
<!-- leaf -->
<g id="node4" class="node">
<title>leaf</title>
<path fill="#fef3c7" stroke="black" d="M84.25,-36C84.25,-36 12,-36 12,-36 6,-36 0,-30 0,-24 0,-24 0,-12 0,-12 0,-6 6,0 12,0 12,0 84.25,0 84.25,0 90.25,0 96.25,-6 96.25,-12 96.25,-12 96.25,-24 96.25,-24 96.25,-30 90.25,-36 84.25,-36"/>
<text text-anchor="middle" x="48.13" y="-12.95" font-family="Times New Roman,serif" font-size="14.00">[1,1] &#160;sum+=2</text>
</g>
<!-- lc&#45;&gt;leaf -->
<g id="edge3" class="edge">
<title>lc&#45;&gt;leaf</title>
<path fill="none" stroke="black" d="M48.13,-72.8C48.13,-65.06 48.13,-56.01 48.13,-47.57"/>
<polygon fill="black" stroke="black" points="51.63,-47.76 48.13,-37.76 44.63,-47.76 51.63,-47.76"/>
</g>
</g>
</svg>
