<?xml version="1.0" encoding="UTF-8" standalone="no"?>
<!DOCTYPE svg PUBLIC "-//W3C//DTD SVG 1.1//EN"
 "http://www.w3.org/Graphics/SVG/1.1/DTD/svg11.dtd">
<!-- Generated by graphviz version 12.2.1 (20241206.2353)
 -->
<!-- Title: wbwlib/core/hash.hpp Pages: 1 -->
<svg width="597pt" height="200pt"
 viewBox="0.00 0.00 596.88 200.00" xmlns="http://www.w3.org/2000/svg" xmlns:xlink="http://www.w3.org/1999/xlink">
<g id="graph0" class="graph" transform="scale(1 1) rotate(0) translate(4 196)">
<title>wbwlib/core/hash.hpp</title>
<polygon fill="white" stroke="none" points="-4,4 -4,-196 592.88,-196 592.88,4 -4,4"/>
<!-- Node1 -->
<g id="node1" class="node">
<title>Node1</title>
<g id="a_node1"><a xlink:title="抗哈希冲突的哈希器（用于 std::unordered_map / unordered_set）。">
<polygon fill="#bfbfbf" stroke="black" points="200.88,-171.5 200.88,-191.5 311.38,-191.5 311.38,-171.5 200.88,-171.5"/>
<text text-anchor="middle" x="256.13" y="-178" font-family="Helvetica,sans-Serif" font-size="10.00">wbwlib/core/hash.hpp</text>
</a>
</g>
</g>
<!-- Node2 -->
<g id="node2" class="node">
<title>Node2</title>
<g id="a_node2"><a xlink:title=" ">
<polygon fill="white" stroke="#bfbfbf" points="0,-0.5 0,-20.5 48.25,-20.5 48.25,-0.5 0,-0.5"/>
<text text-anchor="middle" x="24.13" y="-7" font-family="Helvetica,sans-Serif" font-size="10.00">cstddef</text>
</a>
</g>
</g>
<!-- Node1&#45;&gt;Node2 -->
<g id="edge1" class="edge">
<title>Node1&#45;&gt;Node2</title>
<path fill="none" stroke="midnightblue" d="M210.57,-171.04C184.25,-164.05 151.43,-152.63 126.13,-135 85.22,-106.5 51.58,-57.34 35.09,-30.44"/>
<polygon fill="midnightblue" stroke="midnightblue" points="38.19,-28.8 30.06,-22 32.17,-32.38 38.19,-28.8"/>
</g>
<!-- Node3 -->
<g id="node3" class="node">
<title>Node3</title>
<g id="a_node3"><a xlink:title=" ">
<polygon fill="white" stroke="#bfbfbf" points="335.13,-114.5 335.13,-134.5 393.13,-134.5 393.13,-114.5 335.13,-114.5"/>
<text text-anchor="middle" x="364.13" y="-121" font-family="Helvetica,sans-Serif" font-size="10.00">functional</text>
</a>
</g>
</g>
<!-- Node1&#45;&gt;Node3 -->
<g id="edge2" class="edge">
<title>Node1&#45;&gt;Node3</title>
<path fill="none" stroke="midnightblue" d="M274.45,-171.17C291.2,-162.64 316.26,-149.88 335.63,-140.01"/>
<polygon fill="midnightblue" stroke="midnightblue" points="337.04,-143.22 344.37,-135.56 333.87,-136.98 337.04,-143.22"/>
</g>
<!-- Node4 -->
<g id="node4" class="node">
<title>Node4</title>
<g id="a_node4"><a xlink:title=" ">
<polygon fill="white" stroke="#bfbfbf" points="410.75,-114.5 410.75,-134.5 493.5,-134.5 493.5,-114.5 410.75,-114.5"/>
<text text-anchor="middle" x="452.13" y="-121" font-family="Helvetica,sans-Serif" font-size="10.00">unordered_map</text>
</a>
</g>
</g>
<!-- Node1&#45;&gt;Node4 -->
<g id="edge3" class="edge">
<title>Node1&#45;&gt;Node4</title>
<path fill="none" stroke="midnightblue" d="M289.82,-171.05C322.45,-161.89 372.12,-147.95 407.91,-137.91"/>
<polygon fill="midnightblue" stroke="midnightblue" points="408.4,-141.4 417.09,-135.33 406.51,-134.66 408.4,-141.4"/>
</g>
<!-- Node5 -->
<g id="node5" class="node">
<title>Node5</title>
<g id="a_node5"><a xlink:title=" ">
<polygon fill="white" stroke="#bfbfbf" points="511.38,-114.5 511.38,-134.5 588.88,-134.5 588.88,-114.5 511.38,-114.5"/>
<text text-anchor="middle" x="550.13" y="-121" font-family="Helvetica,sans-Serif" font-size="10.00">unordered_set</text>
</a>
</g>
</g>
<!-- Node1&#45;&gt;Node5 -->
<g id="edge4" class="edge">
<title>Node1&#45;&gt;Node5</title>
<path fill="none" stroke="midnightblue" d="M308.47,-171.01C355.86,-162.38 427.9,-149.15 500,-135.39"/>
<polygon fill="midnightblue" stroke="midnightblue" points="500.45,-138.87 509.61,-133.55 499.13,-131.99 500.45,-138.87"/>
</g>
<!-- Node6 -->
<g id="node6" class="node">
<title>Node6</title>
<g id="a_node6"><a xlink:title=" ">
<polygon fill="white" stroke="#bfbfbf" points="66.5,-0.5 66.5,-20.5 105.75,-20.5 105.75,-0.5 66.5,-0.5"/>
<text text-anchor="middle" x="86.13" y="-7" font-family="Helvetica,sans-Serif" font-size="10.00">utility</text>
</a>
</g>
</g>
<!-- Node1&#45;&gt;Node6 -->
<g id="edge5" class="edge">
<title>Node1&#45;&gt;Node6</title>
<path fill="none" stroke="midnightblue" d="M227.26,-171.05C190,-157.17 126.47,-127.42 97.13,-78 88.89,-64.13 86.33,-45.93 85.73,-32.07"/>
<polygon fill="midnightblue" stroke="midnightblue" points="89.23,-32.29 85.63,-22.33 82.23,-32.36 89.23,-32.29"/>
</g>
<!-- Node7 -->
<g id="node7" class="node">
<title>Node7</title>
<g id="a_node7"><a xlink:href="base_8hpp.html" target="_top" xlink:title="wbwlib 基础：版本号、特性探测宏、类型别名、enable_if 工具、错误策略。">
<polygon fill="white" stroke="black" points="105.88,-57.5 105.88,-77.5 216.38,-77.5 216.38,-57.5 105.88,-57.5"/>
<text text-anchor="middle" x="161.13" y="-64" font-family="Helvetica,sans-Serif" font-size="10.00">wbwlib/core/base.hpp</text>
</a>
</g>
</g>
<!-- Node1&#45;&gt;Node7 -->
<g id="edge6" class="edge">
<title>Node1&#45;&gt;Node7</title>
<path fill="none" stroke="midnightblue" d="M234.52,-171.01C219.15,-163.29 199.02,-151.04 186.13,-135 175.25,-121.47 168.77,-102.71 165.15,-88.57"/>
<polygon fill="midnightblue" stroke="midnightblue" points="168.62,-88.03 162.99,-79.05 161.79,-89.57 168.62,-88.03"/>
</g>
<!-- Node12 -->
<g id="node12" class="node">
<title>Node12</title>
<g id="a_node12"><a xlink:href="random_8hpp.html" target="_top" xlink:title="随机工具：splitmix64、mt19937_64 封装、随机排列。">
<polygon fill="white" stroke="black" points="195.25,-114.5 195.25,-134.5 317,-134.5 317,-114.5 195.25,-114.5"/>
<text text-anchor="middle" x="256.13" y="-121" font-family="Helvetica,sans-Serif" font-size="10.00">wbwlib/core/random.hpp</text>
</a>
</g>
</g>
<!-- Node1&#45;&gt;Node12 -->
<g id="edge13" class="edge">
<title>Node1&#45;&gt;Node12</title>
<path fill="none" stroke="midnightblue" d="M256.13,-171.42C256.13,-164.53 256.13,-154.8 256.13,-146.06"/>
<polygon fill="midnightblue" stroke="midnightblue" points="259.63,-146.29 256.13,-136.29 252.63,-146.29 259.63,-146.29"/>
</g>
<!-- Node7&#45;&gt;Node2 -->
<g id="edge8" class="edge">
<title>Node7&#45;&gt;Node2</title>
<path fill="none" stroke="midnightblue" d="M137.57,-57.05C115.58,-48.22 82.52,-34.94 57.76,-25"/>
<polygon fill="midnightblue" stroke="midnightblue" points="59.36,-21.87 48.77,-21.4 56.75,-28.37 59.36,-21.87"/>
</g>
<!-- Node7&#45;&gt;Node6 -->
<g id="edge12" class="edge">
<title>Node7&#45;&gt;Node6</title>
<path fill="none" stroke="midnightblue" d="M148.4,-57.17C137.41,-49.11 121.28,-37.28 108.19,-27.68"/>
<polygon fill="midnightblue" stroke="midnightblue" points="110.26,-24.86 100.13,-21.77 106.12,-30.51 110.26,-24.86"/>
</g>
<!-- Node8 -->
<g id="node8" class="node">
<title>Node8</title>
<g id="a_node8"><a xlink:title=" ">
<polygon fill="white" stroke="#bfbfbf" points="280.5,-0.5 280.5,-20.5 325.75,-20.5 325.75,-0.5 280.5,-0.5"/>
<text text-anchor="middle" x="303.13" y="-7" font-family="Helvetica,sans-Serif" font-size="10.00">cstdint</text>
</a>
</g>
</g>
<!-- Node7&#45;&gt;Node8 -->
<g id="edge7" class="edge">
<title>Node7&#45;&gt;Node8</title>
<path fill="none" stroke="midnightblue" d="M185.54,-57.05C208.85,-48.02 244.16,-34.34 270,-24.33"/>
<polygon fill="midnightblue" stroke="midnightblue" points="270.97,-27.71 279.03,-20.83 268.44,-21.18 270.97,-27.71"/>
</g>
<!-- Node9 -->
<g id="node9" class="node">
<title>Node9</title>
<g id="a_node9"><a xlink:title=" ">
<polygon fill="white" stroke="#bfbfbf" points="344,-0.5 344,-20.5 392.25,-20.5 392.25,-0.5 344,-0.5"/>
<text text-anchor="middle" x="368.13" y="-7" font-family="Helvetica,sans-Serif" font-size="10.00">cassert</text>
</a>
</g>
</g>
<!-- Node7&#45;&gt;Node9 -->
<g id="edge9" class="edge">
<title>Node7&#45;&gt;Node9</title>
<path fill="none" stroke="midnightblue" d="M198.53,-57C231.47,-48.57 281.02,-35.75 332.6,-21.65"/>
<polygon fill="midnightblue" stroke="midnightblue" points="333.46,-25.04 342.18,-19.02 331.61,-18.29 333.46,-25.04"/>
</g>
<!-- Node10 -->
<g id="node10" class="node">
<title>Node10</title>
<g id="a_node10"><a xlink:title=" ">
<polygon fill="white" stroke="#bfbfbf" points="123.75,-0.5 123.75,-20.5 182.5,-20.5 182.5,-0.5 123.75,-0.5"/>
<text text-anchor="middle" x="153.13" y="-7" font-family="Helvetica,sans-Serif" font-size="10.00">stdexcept</text>
</a>
</g>
</g>
<!-- Node7&#45;&gt;Node10 -->
<g id="edge10" class="edge">
<title>Node7&#45;&gt;Node10</title>
<path fill="none" stroke="midnightblue" d="M159.8,-57.42C158.8,-50.53 157.39,-40.8 156.12,-32.06"/>
<polygon fill="midnightblue" stroke="midnightblue" points="159.6,-31.67 154.69,-22.28 152.67,-32.68 159.6,-31.67"/>
</g>
<!-- Node11 -->
<g id="node11" class="node">
<title>Node11</title>
<g id="a_node11"><a xlink:title=" ">
<polygon fill="white" stroke="#bfbfbf" points="200.25,-0.5 200.25,-20.5 262,-20.5 262,-0.5 200.25,-0.5"/>
<text text-anchor="middle" x="231.13" y="-7" font-family="Helvetica,sans-Serif" font-size="10.00">type_traits</text>
</a>
</g>
</g>
<!-- Node7&#45;&gt;Node11 -->
<g id="edge11" class="edge">
<title>Node7&#45;&gt;Node11</title>
<path fill="none" stroke="midnightblue" d="M173,-57.17C183.22,-49.14 198.2,-37.37 210.39,-27.79"/>
<polygon fill="midnightblue" stroke="midnightblue" points="212.53,-30.56 218.24,-21.63 208.21,-25.05 212.53,-30.56"/>
</g>
<!-- Node12&#45;&gt;Node7 -->
<g id="edge19" class="edge">
<title>Node12&#45;&gt;Node7</title>
<path fill="none" stroke="midnightblue" d="M240.01,-114.17C225.54,-105.79 204.05,-93.35 187.14,-83.56"/>
<polygon fill="midnightblue" stroke="midnightblue" points="189.04,-80.62 178.63,-78.63 185.53,-86.67 189.04,-80.62"/>
</g>
<!-- Node13 -->
<g id="node13" class="node">
<title>Node13</title>
<g id="a_node13"><a xlink:title=" ">
<polygon fill="white" stroke="#bfbfbf" points="295.25,-57.5 295.25,-77.5 351,-77.5 351,-57.5 295.25,-57.5"/>
<text text-anchor="middle" x="323.13" y="-64" font-family="Helvetica,sans-Serif" font-size="10.00">algorithm</text>
</a>
</g>
</g>
<!-- Node12&#45;&gt;Node13 -->
<g id="edge14" class="edge">
<title>Node12&#45;&gt;Node13</title>
<path fill="none" stroke="midnightblue" d="M267.49,-114.17C277.27,-106.14 291.61,-94.37 303.28,-84.79"/>
<polygon fill="midnightblue" stroke="midnightblue" points="305.25,-87.7 310.76,-78.65 300.81,-82.29 305.25,-87.7"/>
</g>
<!-- Node14 -->
<g id="node14" class="node">
<title>Node14</title>
<g id="a_node14"><a xlink:title=" ">
<polygon fill="white" stroke="#bfbfbf" points="369.5,-57.5 369.5,-77.5 414.75,-77.5 414.75,-57.5 369.5,-57.5"/>
<text text-anchor="middle" x="392.13" y="-64" font-family="Helvetica,sans-Serif" font-size="10.00">chrono</text>
</a>
</g>
</g>
<!-- Node12&#45;&gt;Node14 -->
<g id="edge15" class="edge">
<title>Node12&#45;&gt;Node14</title>
<path fill="none" stroke="midnightblue" d="M279.5,-114.05C301.24,-105.26 333.86,-92.06 358.41,-82.14"/>
<polygon fill="midnightblue" stroke="midnightblue" points="359.69,-85.39 367.65,-78.4 357.06,-78.9 359.69,-85.39"/>
</g>
<!-- Node15 -->
<g id="node15" class="node">
<title>Node15</title>
<g id="a_node15"><a xlink:title=" ">
<polygon fill="white" stroke="#bfbfbf" points="433.13,-57.5 433.13,-77.5 479.13,-77.5 479.13,-57.5 433.13,-57.5"/>
<text text-anchor="middle" x="456.13" y="-64" font-family="Helvetica,sans-Serif" font-size="10.00">iterator</text>
</a>
</g>
</g>
<!-- Node12&#45;&gt;Node15 -->
<g id="edge16" class="edge">
<title>Node12&#45;&gt;Node15</title>
<path fill="none" stroke="midnightblue" d="M291.92,-114.07C323.65,-105.66 371.52,-92.82 421.66,-78.66"/>
<polygon fill="midnightblue" stroke="midnightblue" points="422.6,-82.03 431.27,-75.93 420.69,-75.29 422.6,-82.03"/>
</g>
<!-- Node16 -->
<g id="node16" class="node">
<title>Node16</title>
<g id="a_node16"><a xlink:title=" ">
<polygon fill="white" stroke="#bfbfbf" points="497,-57.5 497,-77.5 545.25,-77.5 545.25,-57.5 497,-57.5"/>
<text text-anchor="middle" x="521.13" y="-64" font-family="Helvetica,sans-Serif" font-size="10.00">random</text>
</a>
</g>
</g>
<!-- Node12&#45;&gt;Node16 -->
<g id="edge17" class="edge">
<title>Node12&#45;&gt;Node16</title>
<path fill="none" stroke="midnightblue" d="M311.26,-114.08C355.96,-106.12 420.8,-93.88 485.82,-78.41"/>
<polygon fill="midnightblue" stroke="midnightblue" points="486.3,-81.89 495.21,-76.15 484.67,-75.08 486.3,-81.89"/>
</g>
<!-- Node17 -->
<g id="node17" class="node">
<title>Node17</title>
<g id="a_node17"><a xlink:title=" ">
<polygon fill="white" stroke="#bfbfbf" points="234.63,-57.5 234.63,-77.5 277.63,-77.5 277.63,-57.5 234.63,-57.5"/>
<text text-anchor="middle" x="256.13" y="-64" font-family="Helvetica,sans-Serif" font-size="10.00">vector</text>
</a>
</g>
</g>
<!-- Node12&#45;&gt;Node17 -->
<g id="edge18" class="edge">
<title>Node12&#45;&gt;Node17</title>
<path fill="none" stroke="midnightblue" d="M256.13,-114.42C256.13,-107.53 256.13,-97.8 256.13,-89.06"/>
<polygon fill="midnightblue" stroke="midnightblue" points="259.63,-89.29 256.13,-79.29 252.63,-89.29 259.63,-89.29"/>
</g>
</g>
</svg>
