<?xml version="1.0" encoding="UTF-8" standalone="no"?>
<!DOCTYPE svg PUBLIC "-//W3C//DTD SVG 1.1//EN"
 "http://www.w3.org/Graphics/SVG/1.1/DTD/svg11.dtd">
<!-- Generated by graphviz version 12.2.1 (20241206.2353)
 -->
<!-- Title: wbwlib/math/modular.hpp Pages: 1 -->
<svg width="400pt" height="212pt"
 viewBox="0.00 0.00 400.25 212.00" xmlns="http://www.w3.org/2000/svg" xmlns:xlink="http://www.w3.org/1999/xlink">
<g id="graph0" class="graph" transform="scale(1 1) rotate(0) translate(4 208)">
<title>wbwlib/math/modular.hpp</title>
<polygon fill="white" stroke="none" points="-4,4 -4,-208 396.25,-208 396.25,4 -4,4"/>
<!-- Node1 -->
<g id="node1" class="node">
<title>Node1</title>
<g id="a_node1"><a xlink:title="模意义整数类 modint（固定模版）与动态模版。">
<polygon fill="#bfbfbf" stroke="black" points="163.13,-183.5 163.13,-203.5 290.13,-203.5 290.13,-183.5 163.13,-183.5"/>
<text text-anchor="middle" x="226.63" y="-190" font-family="Helvetica,sans-Serif" font-size="10.00">wbwlib/math/modular.hpp</text>
</a>
</g>
</g>
<!-- Node2 -->
<g id="node2" class="node">
<title>Node2</title>
<g id="a_node2"><a xlink:title=" ">
<polygon fill="white" stroke="#bfbfbf" points="144.88,-120.5 144.88,-140.5 198.38,-140.5 198.38,-120.5 144.88,-120.5"/>
<text text-anchor="middle" x="171.63" y="-127" font-family="Helvetica,sans-Serif" font-size="10.00">iostream</text>
</a>
</g>
</g>
<!-- Node1&#45;&gt;Node2 -->
<g id="edge1" class="edge">
<title>Node1&#45;&gt;Node2</title>
<path fill="none" stroke="midnightblue" d="M218.27,-183.24C210.2,-174.28 197.75,-160.47 187.74,-149.37"/>
<polygon fill="midnightblue" stroke="midnightblue" points="190.37,-147.06 181.07,-141.98 185.17,-151.75 190.37,-147.06"/>
</g>
<!-- Node3 -->
<g id="node3" class="node">
<title>Node3</title>
<g id="a_node3"><a xlink:href="base_8hpp.html" target="_top" xlink:title="wbwlib 基础：版本号、特性探测宏、类型别名、enable_if 工具、错误策略。">
<polygon fill="white" stroke="black" points="170.38,-57.5 170.38,-77.5 280.88,-77.5 280.88,-57.5 170.38,-57.5"/>
<text text-anchor="middle" x="225.63" y="-64" font-family="Helvetica,sans-Serif" font-size="10.00">wbwlib/core/base.hpp</text>
</a>
</g>
</g>
<!-- Node1&#45;&gt;Node3 -->
<g id="edge2" class="edge">
<title>Node1&#45;&gt;Node3</title>
<path fill="none" stroke="midnightblue" d="M226.55,-183.18C226.39,-163.34 226.01,-116.53 225.79,-89.24"/>
<polygon fill="midnightblue" stroke="midnightblue" points="229.29,-89.41 225.71,-79.44 222.29,-89.47 229.29,-89.41"/>
</g>
<!-- Node10 -->
<g id="node10" class="node">
<title>Node10</title>
<g id="a_node10"><a xlink:href="number-theory_8hpp.html" target="_top" xlink:title="数论基础：快速幂、快速乘、gcd/lcm、扩展欧几里得、逆元、CRT/EXCRT、欧拉定理、整除分块。">
<polygon fill="white" stroke="black" points="255.63,-114.5 255.63,-146.5 361.63,-146.5 361.63,-114.5 255.63,-114.5"/>
<text text-anchor="start" x="263.63" y="-133" font-family="Helvetica,sans-Serif" font-size="10.00">wbwlib/math/number</text>
<text text-anchor="middle" x="308.63" y="-121" font-family="Helvetica,sans-Serif" font-size="10.00">&#45;theory.hpp</text>
</a>
</g>
</g>
<!-- Node1&#45;&gt;Node10 -->
<g id="edge9" class="edge">
<title>Node1&#45;&gt;Node10</title>
<path fill="none" stroke="midnightblue" d="M239.08,-183.24C249.64,-175.38 265.21,-163.8 278.94,-153.58"/>
<polygon fill="midnightblue" stroke="midnightblue" points="280.92,-156.47 286.85,-147.7 276.74,-150.86 280.92,-156.47"/>
</g>
<!-- Node4 -->
<g id="node4" class="node">
<title>Node4</title>
<g id="a_node4"><a xlink:title=" ">
<polygon fill="white" stroke="#bfbfbf" points="0,-0.5 0,-20.5 45.25,-20.5 45.25,-0.5 0,-0.5"/>
<text text-anchor="middle" x="22.63" y="-7" font-family="Helvetica,sans-Serif" font-size="10.00">cstdint</text>
</a>
</g>
</g>
<!-- Node3&#45;&gt;Node4 -->
<g id="edge3" class="edge">
<title>Node3&#45;&gt;Node4</title>
<path fill="none" stroke="midnightblue" d="M188.85,-57.04C156.47,-48.64 107.77,-35.83 56.62,-21.51"/>
<polygon fill="midnightblue" stroke="midnightblue" points="57.71,-18.18 47.13,-18.84 55.81,-24.91 57.71,-18.18"/>
</g>
<!-- Node5 -->
<g id="node5" class="node">
<title>Node5</title>
<g id="a_node5"><a xlink:title=" ">
<polygon fill="white" stroke="#bfbfbf" points="63.5,-0.5 63.5,-20.5 111.75,-20.5 111.75,-0.5 63.5,-0.5"/>
<text text-anchor="middle" x="87.63" y="-7" font-family="Helvetica,sans-Serif" font-size="10.00">cstddef</text>
</a>
</g>
</g>
<!-- Node3&#45;&gt;Node5 -->
<g id="edge4" class="edge">
<title>Node3&#45;&gt;Node5</title>
<path fill="none" stroke="midnightblue" d="M201.9,-57.05C179.75,-48.22 146.45,-34.94 121.5,-25"/>
<polygon fill="midnightblue" stroke="midnightblue" points="123.03,-21.84 112.44,-21.39 120.44,-28.35 123.03,-21.84"/>
</g>
<!-- Node6 -->
<g id="node6" class="node">
<title>Node6</title>
<g id="a_node6"><a xlink:title=" ">
<polygon fill="white" stroke="#bfbfbf" points="129.5,-0.5 129.5,-20.5 177.75,-20.5 177.75,-0.5 129.5,-0.5"/>
<text text-anchor="middle" x="153.63" y="-7" font-family="Helvetica,sans-Serif" font-size="10.00">cassert</text>
</a>
</g>
</g>
<!-- Node3&#45;&gt;Node6 -->
<g id="edge5" class="edge">
<title>Node3&#45;&gt;Node6</title>
<path fill="none" stroke="midnightblue" d="M213.41,-57.17C202.8,-49.06 187.19,-37.14 174.58,-27.51"/>
<polygon fill="midnightblue" stroke="midnightblue" points="176.93,-24.9 166.86,-21.61 172.68,-30.46 176.93,-24.9"/>
</g>
<!-- Node7 -->
<g id="node7" class="node">
<title>Node7</title>
<g id="a_node7"><a xlink:title=" ">
<polygon fill="white" stroke="#bfbfbf" points="196.25,-0.5 196.25,-20.5 255,-20.5 255,-0.5 196.25,-0.5"/>
<text text-anchor="middle" x="225.63" y="-7" font-family="Helvetica,sans-Serif" font-size="10.00">stdexcept</text>
</a>
</g>
</g>
<!-- Node3&#45;&gt;Node7 -->
<g id="edge6" class="edge">
<title>Node3&#45;&gt;Node7</title>
<path fill="none" stroke="midnightblue" d="M225.63,-57.42C225.63,-50.53 225.63,-40.8 225.63,-32.06"/>
<polygon fill="midnightblue" stroke="midnightblue" points="229.13,-32.29 225.63,-22.29 222.13,-32.29 229.13,-32.29"/>
</g>
<!-- Node8 -->
<g id="node8" class="node">
<title>Node8</title>
<g id="a_node8"><a xlink:title=" ">
<polygon fill="white" stroke="#bfbfbf" points="272.75,-0.5 272.75,-20.5 334.5,-20.5 334.5,-0.5 272.75,-0.5"/>
<text text-anchor="middle" x="303.63" y="-7" font-family="Helvetica,sans-Serif" font-size="10.00">type_traits</text>
</a>
</g>
</g>
<!-- Node3&#45;&gt;Node8 -->
<g id="edge7" class="edge">
<title>Node3&#45;&gt;Node8</title>
<path fill="none" stroke="midnightblue" d="M238.86,-57.17C250.4,-49.03 267.39,-37.05 281.07,-27.4"/>
<polygon fill="midnightblue" stroke="midnightblue" points="282.94,-30.37 289.09,-21.75 278.9,-24.65 282.94,-30.37"/>
</g>
<!-- Node9 -->
<g id="node9" class="node">
<title>Node9</title>
<g id="a_node9"><a xlink:title=" ">
<polygon fill="white" stroke="#bfbfbf" points="353,-0.5 353,-20.5 392.25,-20.5 392.25,-0.5 353,-0.5"/>
<text text-anchor="middle" x="372.63" y="-7" font-family="Helvetica,sans-Serif" font-size="10.00">utility</text>
</a>
</g>
</g>
<!-- Node3&#45;&gt;Node9 -->
<g id="edge8" class="edge">
<title>Node3&#45;&gt;Node9</title>
<path fill="none" stroke="midnightblue" d="M250.9,-57.05C276.18,-47.59 315.09,-33.03 342.09,-22.92"/>
<polygon fill="midnightblue" stroke="midnightblue" points="343.3,-26.21 351.44,-19.43 340.85,-19.65 343.3,-26.21"/>
</g>
<!-- Node10&#45;&gt;Node3 -->
<g id="edge12" class="edge">
<title>Node10&#45;&gt;Node3</title>
<path fill="none" stroke="midnightblue" d="M287.68,-114.11C275.4,-105.08 259.91,-93.7 247.48,-84.56"/>
<polygon fill="midnightblue" stroke="midnightblue" points="249.64,-81.8 239.51,-78.7 245.49,-87.44 249.64,-81.8"/>
</g>
<!-- Node10&#45;&gt;Node9 -->
<g id="edge10" class="edge">
<title>Node10&#45;&gt;Node9</title>
<path fill="none" stroke="midnightblue" d="M310.58,-114.21C313.04,-98.93 318.26,-75.14 328.63,-57 334.77,-46.24 344.05,-36.12 352.5,-28.18"/>
<polygon fill="midnightblue" stroke="midnightblue" points="354.57,-31.02 359.71,-21.75 349.92,-25.79 354.57,-31.02"/>
</g>
<!-- Node11 -->
<g id="node11" class="node">
<title>Node11</title>
<g id="a_node11"><a xlink:title=" ">
<polygon fill="white" stroke="#bfbfbf" points="337.13,-57.5 337.13,-77.5 380.13,-77.5 380.13,-57.5 337.13,-57.5"/>
<text text-anchor="middle" x="358.63" y="-64" font-family="Helvetica,sans-Serif" font-size="10.00">vector</text>
</a>
</g>
</g>
<!-- Node10&#45;&gt;Node11 -->
<g id="edge11" class="edge">
<title>Node10&#45;&gt;Node11</title>
<path fill="none" stroke="midnightblue" d="M321.24,-114.11C328.13,-105.71 336.68,-95.27 343.88,-86.49"/>
<polygon fill="midnightblue" stroke="midnightblue" points="346.41,-88.93 350.04,-78.98 340.99,-84.49 346.41,-88.93"/>
</g>
</g>
</svg>
