<?xml version="1.0" encoding="UTF-8" standalone="no"?>
<!DOCTYPE svg PUBLIC "-//W3C//DTD SVG 1.1//EN"
 "http://www.w3.org/Graphics/SVG/1.1/DTD/svg11.dtd">
<!-- Generated by graphviz version 12.2.1 (20241206.2353)
 -->
<!-- Title: wbwlib/graph/shortest&#45;path.hpp Pages: 1 -->
<svg width="519pt" height="212pt"
 viewBox="0.00 0.00 518.63 212.00" xmlns="http://www.w3.org/2000/svg" xmlns:xlink="http://www.w3.org/1999/xlink">
<g id="graph0" class="graph" transform="scale(1 1) rotate(0) translate(4 208)">
<title>wbwlib/graph/shortest&#45;path.hpp</title>
<polygon fill="white" stroke="none" points="-4,4 -4,-208 514.63,-208 514.63,4 -4,4"/>
<!-- Node1 -->
<g id="node1" class="node">
<title>Node1</title>
<g id="a_node1"><a xlink:title="最短路：Dijkstra（堆）/ SPFA（判负环）/ Floyd / 0&#45;1 BFS / 拓扑序 DAG。">
<polygon fill="#bfbfbf" stroke="black" points="218.88,-171.5 218.88,-203.5 330.13,-203.5 330.13,-171.5 218.88,-171.5"/>
<text text-anchor="start" x="226.88" y="-190" font-family="Helvetica,sans-Serif" font-size="10.00">wbwlib/graph/shortest</text>
<text text-anchor="middle" x="274.5" y="-178" font-family="Helvetica,sans-Serif" font-size="10.00">&#45;path.hpp</text>
</a>
</g>
</g>
<!-- Node2 -->
<g id="node2" class="node">
<title>Node2</title>
<g id="a_node2"><a xlink:title=" ">
<polygon fill="white" stroke="#bfbfbf" points="0,-57.5 0,-77.5 43,-77.5 43,-57.5 0,-57.5"/>
<text text-anchor="middle" x="21.5" y="-64" font-family="Helvetica,sans-Serif" font-size="10.00">vector</text>
</a>
</g>
</g>
<!-- Node1&#45;&gt;Node2 -->
<g id="edge1" class="edge">
<title>Node1&#45;&gt;Node2</title>
<path fill="none" stroke="midnightblue" d="M218.48,-179.32C179.14,-172.41 126.45,-159.29 85.5,-135 64.7,-122.66 46.18,-101.76 34.48,-86.67"/>
<polygon fill="midnightblue" stroke="midnightblue" points="37.51,-84.89 28.73,-78.97 31.9,-89.07 37.51,-84.89"/>
</g>
<!-- Node3 -->
<g id="node3" class="node">
<title>Node3</title>
<g id="a_node3"><a xlink:title=" ">
<polygon fill="white" stroke="#bfbfbf" points="302.38,-114.5 302.38,-134.5 344.63,-134.5 344.63,-114.5 302.38,-114.5"/>
<text text-anchor="middle" x="323.5" y="-121" font-family="Helvetica,sans-Serif" font-size="10.00">queue</text>
</a>
</g>
</g>
<!-- Node1&#45;&gt;Node3 -->
<g id="edge2" class="edge">
<title>Node1&#45;&gt;Node3</title>
<path fill="none" stroke="midnightblue" d="M286.86,-171.11C293.54,-162.8 301.82,-152.49 308.82,-143.77"/>
<polygon fill="midnightblue" stroke="midnightblue" points="311.54,-145.97 315.08,-135.99 306.09,-141.59 311.54,-145.97"/>
</g>
<!-- Node4 -->
<g id="node4" class="node">
<title>Node4</title>
<g id="a_node4"><a xlink:title=" ">
<polygon fill="white" stroke="#bfbfbf" points="362.38,-114.5 362.38,-134.5 404.63,-134.5 404.63,-114.5 362.38,-114.5"/>
<text text-anchor="middle" x="383.5" y="-121" font-family="Helvetica,sans-Serif" font-size="10.00">deque</text>
</a>
</g>
</g>
<!-- Node1&#45;&gt;Node4 -->
<g id="edge3" class="edge">
<title>Node1&#45;&gt;Node4</title>
<path fill="none" stroke="midnightblue" d="M302.01,-171.11C318.82,-161.7 340.23,-149.72 356.88,-140.4"/>
<polygon fill="midnightblue" stroke="midnightblue" points="358.21,-143.66 365.23,-135.72 354.79,-137.55 358.21,-143.66"/>
</g>
<!-- Node5 -->
<g id="node5" class="node">
<title>Node5</title>
<g id="a_node5"><a xlink:title=" ">
<polygon fill="white" stroke="#bfbfbf" points="422.88,-114.5 422.88,-134.5 462.13,-134.5 462.13,-114.5 422.88,-114.5"/>
<text text-anchor="middle" x="442.5" y="-121" font-family="Helvetica,sans-Serif" font-size="10.00">limits</text>
</a>
</g>
</g>
<!-- Node1&#45;&gt;Node5 -->
<g id="edge4" class="edge">
<title>Node1&#45;&gt;Node5</title>
<path fill="none" stroke="midnightblue" d="M316.89,-171.11C346.49,-160.36 385.31,-146.26 411.92,-136.61"/>
<polygon fill="midnightblue" stroke="midnightblue" points="412.88,-139.98 421.08,-133.28 410.49,-133.4 412.88,-139.98"/>
</g>
<!-- Node6 -->
<g id="node6" class="node">
<title>Node6</title>
<g id="a_node6"><a xlink:title=" ">
<polygon fill="white" stroke="#bfbfbf" points="60.63,-57.5 60.63,-77.5 116.38,-77.5 116.38,-57.5 60.63,-57.5"/>
<text text-anchor="middle" x="88.5" y="-64" font-family="Helvetica,sans-Serif" font-size="10.00">algorithm</text>
</a>
</g>
</g>
<!-- Node1&#45;&gt;Node6 -->
<g id="edge5" class="edge">
<title>Node1&#45;&gt;Node6</title>
<path fill="none" stroke="midnightblue" d="M218.61,-184.95C179.53,-180.76 129.19,-168.56 99.5,-135 88.59,-122.66 86.35,-103.79 86.55,-89.29"/>
<polygon fill="midnightblue" stroke="midnightblue" points="90.03,-89.65 87.1,-79.47 83.04,-89.26 90.03,-89.65"/>
</g>
<!-- Node7 -->
<g id="node7" class="node">
<title>Node7</title>
<g id="a_node7"><a xlink:href="base_8hpp.html" target="_top" xlink:title="wbwlib 基础：版本号、特性探测宏、类型别名、enable_if 工具、错误策略。">
<polygon fill="white" stroke="black" points="228.25,-57.5 228.25,-77.5 338.75,-77.5 338.75,-57.5 228.25,-57.5"/>
<text text-anchor="middle" x="283.5" y="-64" font-family="Helvetica,sans-Serif" font-size="10.00">wbwlib/core/base.hpp</text>
</a>
</g>
</g>
<!-- Node1&#45;&gt;Node7 -->
<g id="edge6" class="edge">
<title>Node1&#45;&gt;Node7</title>
<path fill="none" stroke="midnightblue" d="M275.68,-171.07C277.28,-150.09 280.14,-112.51 281.93,-89.13"/>
<polygon fill="midnightblue" stroke="midnightblue" points="285.41,-89.54 282.68,-79.3 278.43,-89.01 285.41,-89.54"/>
</g>
<!-- Node14 -->
<g id="node14" class="node">
<title>Node14</title>
<g id="a_node14"><a xlink:href="adjacency_8hpp.html" target="_top" xlink:title="图表示约定：1 基邻接表 + 常用辅助。">
<polygon fill="white" stroke="black" points="108.38,-114.5 108.38,-134.5 246.63,-134.5 246.63,-114.5 108.38,-114.5"/>
<text text-anchor="middle" x="177.5" y="-121" font-family="Helvetica,sans-Serif" font-size="10.00">wbwlib/graph/adjacency.hpp</text>
</a>
</g>
</g>
<!-- Node1&#45;&gt;Node14 -->
<g id="edge13" class="edge">
<title>Node1&#45;&gt;Node14</title>
<path fill="none" stroke="midnightblue" d="M250.02,-171.11C235.34,-161.87 216.73,-150.17 202.03,-140.93"/>
<polygon fill="midnightblue" stroke="midnightblue" points="204.19,-138.15 193.86,-135.79 200.47,-144.08 204.19,-138.15"/>
</g>
<!-- Node8 -->
<g id="node8" class="node">
<title>Node8</title>
<g id="a_node8"><a xlink:title=" ">
<polygon fill="white" stroke="#bfbfbf" points="332.88,-0.5 332.88,-20.5 378.13,-20.5 378.13,-0.5 332.88,-0.5"/>
<text text-anchor="middle" x="355.5" y="-7" font-family="Helvetica,sans-Serif" font-size="10.00">cstdint</text>
</a>
</g>
</g>
<!-- Node7&#45;&gt;Node8 -->
<g id="edge7" class="edge">
<title>Node7&#45;&gt;Node8</title>
<path fill="none" stroke="midnightblue" d="M295.71,-57.17C306.33,-49.06 321.94,-37.14 334.54,-27.51"/>
<polygon fill="midnightblue" stroke="midnightblue" points="336.44,-30.46 342.26,-21.61 332.19,-24.9 336.44,-30.46"/>
</g>
<!-- Node9 -->
<g id="node9" class="node">
<title>Node9</title>
<g id="a_node9"><a xlink:title=" ">
<polygon fill="white" stroke="#bfbfbf" points="396.38,-0.5 396.38,-20.5 444.63,-20.5 444.63,-0.5 396.38,-0.5"/>
<text text-anchor="middle" x="420.5" y="-7" font-family="Helvetica,sans-Serif" font-size="10.00">cstddef</text>
</a>
</g>
</g>
<!-- Node7&#45;&gt;Node9 -->
<g id="edge8" class="edge">
<title>Node7&#45;&gt;Node9</title>
<path fill="none" stroke="midnightblue" d="M307.05,-57.05C329.04,-48.22 362.1,-34.94 386.87,-25"/>
<polygon fill="midnightblue" stroke="midnightblue" points="387.88,-28.37 395.85,-21.4 385.27,-21.87 387.88,-28.37"/>
</g>
<!-- Node10 -->
<g id="node10" class="node">
<title>Node10</title>
<g id="a_node10"><a xlink:title=" ">
<polygon fill="white" stroke="#bfbfbf" points="462.38,-0.5 462.38,-20.5 510.63,-20.5 510.63,-0.5 462.38,-0.5"/>
<text text-anchor="middle" x="486.5" y="-7" font-family="Helvetica,sans-Serif" font-size="10.00">cassert</text>
</a>
</g>
</g>
<!-- Node7&#45;&gt;Node10 -->
<g id="edge9" class="edge">
<title>Node7&#45;&gt;Node10</title>
<path fill="none" stroke="midnightblue" d="M319.7,-57.02C351.87,-48.55 400.44,-35.65 451.16,-21.62"/>
<polygon fill="midnightblue" stroke="midnightblue" points="451.85,-25.06 460.55,-19.01 449.98,-18.31 451.85,-25.06"/>
</g>
<!-- Node11 -->
<g id="node11" class="node">
<title>Node11</title>
<g id="a_node11"><a xlink:title=" ">
<polygon fill="white" stroke="#bfbfbf" points="176.13,-0.5 176.13,-20.5 234.88,-20.5 234.88,-0.5 176.13,-0.5"/>
<text text-anchor="middle" x="205.5" y="-7" font-family="Helvetica,sans-Serif" font-size="10.00">stdexcept</text>
</a>
</g>
</g>
<!-- Node7&#45;&gt;Node11 -->
<g id="edge10" class="edge">
<title>Node7&#45;&gt;Node11</title>
<path fill="none" stroke="midnightblue" d="M270.27,-57.17C258.73,-49.03 241.73,-37.05 228.05,-27.4"/>
<polygon fill="midnightblue" stroke="midnightblue" points="230.22,-24.65 220.03,-21.75 226.19,-30.37 230.22,-24.65"/>
</g>
<!-- Node12 -->
<g id="node12" class="node">
<title>Node12</title>
<g id="a_node12"><a xlink:title=" ">
<polygon fill="white" stroke="#bfbfbf" points="252.63,-0.5 252.63,-20.5 314.38,-20.5 314.38,-0.5 252.63,-0.5"/>
<text text-anchor="middle" x="283.5" y="-7" font-family="Helvetica,sans-Serif" font-size="10.00">type_traits</text>
</a>
</g>
</g>
<!-- Node7&#45;&gt;Node12 -->
<g id="edge11" class="edge">
<title>Node7&#45;&gt;Node12</title>
<path fill="none" stroke="midnightblue" d="M283.5,-57.42C283.5,-50.53 283.5,-40.8 283.5,-32.06"/>
<polygon fill="midnightblue" stroke="midnightblue" points="287,-32.29 283.5,-22.29 280,-32.29 287,-32.29"/>
</g>
<!-- Node13 -->
<g id="node13" class="node">
<title>Node13</title>
<g id="a_node13"><a xlink:title=" ">
<polygon fill="white" stroke="#bfbfbf" points="118.88,-0.5 118.88,-20.5 158.13,-20.5 158.13,-0.5 118.88,-0.5"/>
<text text-anchor="middle" x="138.5" y="-7" font-family="Helvetica,sans-Serif" font-size="10.00">utility</text>
</a>
</g>
</g>
<!-- Node7&#45;&gt;Node13 -->
<g id="edge12" class="edge">
<title>Node7&#45;&gt;Node13</title>
<path fill="none" stroke="midnightblue" d="M258.57,-57.05C233.78,-47.64 195.68,-33.19 169.07,-23.1"/>
<polygon fill="midnightblue" stroke="midnightblue" points="170.45,-19.88 159.86,-19.6 167.97,-26.42 170.45,-19.88"/>
</g>
<!-- Node14&#45;&gt;Node2 -->
<g id="edge14" class="edge">
<title>Node14&#45;&gt;Node2</title>
<path fill="none" stroke="midnightblue" d="M150.68,-114.05C123.92,-104.61 82.76,-90.1 54.12,-80"/>
<polygon fill="midnightblue" stroke="midnightblue" points="55.46,-76.76 44.87,-76.74 53.13,-83.36 55.46,-76.76"/>
</g>
<!-- Node14&#45;&gt;Node6 -->
<g id="edge17" class="edge">
<title>Node14&#45;&gt;Node6</title>
<path fill="none" stroke="midnightblue" d="M162.4,-114.17C148.98,-105.87 129.09,-93.58 113.33,-83.84"/>
<polygon fill="midnightblue" stroke="midnightblue" points="115.31,-80.95 104.96,-78.67 111.63,-86.91 115.31,-80.95"/>
</g>
<!-- Node14&#45;&gt;Node7 -->
<g id="edge18" class="edge">
<title>Node14&#45;&gt;Node7</title>
<path fill="none" stroke="midnightblue" d="M195.48,-114.17C211.85,-105.68 236.29,-93 255.26,-83.15"/>
<polygon fill="midnightblue" stroke="midnightblue" points="256.82,-86.29 264.09,-78.57 253.6,-80.07 256.82,-86.29"/>
</g>
<!-- Node14&#45;&gt;Node13 -->
<g id="edge15" class="edge">
<title>Node14&#45;&gt;Node13</title>
<path fill="none" stroke="midnightblue" d="M174.31,-114.33C168.02,-96.29 153.92,-55.78 145.41,-31.33"/>
<polygon fill="midnightblue" stroke="midnightblue" points="148.83,-30.51 142.23,-22.22 142.22,-32.82 148.83,-30.51"/>
</g>
<!-- Node15 -->
<g id="node15" class="node">
<title>Node15</title>
<g id="a_node15"><a xlink:title=" ">
<polygon fill="white" stroke="#bfbfbf" points="173,-57.5 173,-77.5 210,-77.5 210,-57.5 173,-57.5"/>
<text text-anchor="middle" x="191.5" y="-64" font-family="Helvetica,sans-Serif" font-size="10.00">tuple</text>
</a>
</g>
</g>
<!-- Node14&#45;&gt;Node15 -->
<g id="edge16" class="edge">
<title>Node14&#45;&gt;Node15</title>
<path fill="none" stroke="midnightblue" d="M179.81,-114.42C181.58,-107.45 184.1,-97.57 186.34,-88.76"/>
<polygon fill="midnightblue" stroke="midnightblue" points="189.69,-89.8 188.76,-79.25 182.91,-88.07 189.69,-89.8"/>
</g>
</g>
</svg>
